# Blender v3.2.2 OBJ File: 'M1_export.blend'
# www.blender.org
mtllib legPart3_convex_hull.mtl
o legPart3_legPart3_NONE.001
v 0.364163 -0.072466 0.063222
v 0.381421 -0.068382 -0.065155
v 0.383403 -0.067615 0.063193
v 0.399324 -0.058645 -0.065167
v 0.406577 -0.052798 0.063174
v 0.421343 -0.032861 -0.065145
v 0.429214 0.001420 0.019773
v 0.428422 -0.008111 0.063212
v 0.366134 -0.072056 -0.065287
v 0.422920 -0.029774 0.063205
v 0.428690 -0.005921 -0.065200
v 0.422166 0.030900 0.063187
v 0.418406 0.038636 -0.065161
v 0.406252 0.053238 0.063174
v 0.369096 0.072128 -0.065306
v 0.429554 -0.003357 -0.026880
v 0.426732 0.016871 -0.065186
v 0.395902 0.061689 -0.065186
v 0.427228 0.016243 0.063170
v -0.007194 0.073029 -0.059702
v -0.013772 0.072057 0.057779
v -0.032266 0.065689 0.057763
v -0.040143 0.061288 -0.059780
v -0.046145 0.056896 0.057779
v -0.053291 0.050133 -0.059777
v -0.061433 0.040168 0.057725
v -0.073344 0.004178 0.057800
v -0.069267 -0.023846 0.057782
v -0.059088 -0.042944 0.057749
v -0.047720 -0.055363 0.057766
v -0.026749 -0.068132 0.057761
v -0.011594 -0.072283 -0.059755
v -0.063340 -0.036784 -0.059786
v -0.043093 -0.059109 -0.059788
v -0.073220 0.005260 -0.059785
v -0.071625 -0.014701 -0.060580
v 0.280742 -0.000071 -0.070815
v -0.069366 0.023399 0.057813
v -0.024964 0.068798 -0.059770
v -0.066591 0.030713 -0.059785
v 0.365480 0.072722 0.063228
v 0.390001 0.064929 0.063186
v 0.411934 -0.046450 -0.065187
v -0.008913 -0.072445 0.057713
v -0.007499 0.000126 0.068437
v 0.356601 -0.000237 0.068430
vt 0.137440 0.124392
vt 0.000000 0.000000
vt 0.068202 0.276308
vt 0.013443 0.028597
vt 0.190608 0.131096
vt 0.000762 0.439844
vt 0.265928 0.172055
vt 0.000225 -0.000054
vt 0.034247 0.149832
vt 0.000036 0.000191
vt 0.924694 0.091305
vt 0.318861 0.433693
vt 0.048571 0.033191
vt 0.906238 0.551126
vt 0.615168 0.579811
vt 0.722790 0.615284
vt 0.007589 0.005465
vt 0.902865 0.040209
vt 0.473424 0.307463
vt 0.381640 0.166528
vt 0.388631 0.536265
vt 0.220985 0.285561
vt 0.402937 0.257412
vt 0.557090 0.321862
vt 0.005986 0.036200
vt 0.003057 0.764428
vt 0.000510 0.011329
vt 0.000000 0.000000
vt 0.696000 0.299796
vt 0.076660 0.037162
vt 0.000000 0.000000
vt 0.334787 0.170777
vt 0.234516 0.495120
vt 0.024847 0.080799
vt 0.685318 0.115370
vt 0.000000 0.000000
vt 0.020880 0.075953
vt 0.158172 0.050994
vt 0.000000 0.000000
vt 0.262622 0.324558
vt 0.023576 0.028137
vt 0.043737 0.134845
vt 0.026624 0.027581
vt 0.000000 0.000000
vt 0.159293 0.324368
vt 0.260022 0.022926
vt 0.762064 0.049194
vt 0.282226 0.214883
vt 0.500167 0.355636
vt 0.000000 0.000000
vt 0.313822 0.346354
vt 0.251410 0.249098
vt 0.364023 0.214272
vt 0.887911 0.418338
vt 0.577024 0.463250
vt 0.689508 0.535382
vt 0.041163 0.132043
vt 0.205870 0.357160
vt 0.781430 0.347548
vt 0.827677 0.735059
vt 0.005662 0.003651
vt 0.652467 0.567444
vt 0.003269 0.236728
vt 0.958702 0.551126
vt 0.101641 0.558996
vt 0.000965 0.541881
vt 0.002430 0.789819
vt 0.231953 0.216092
vt 0.112749 0.372522
vt 0.340432 0.568091
vt 0.646172 0.035556
vt 0.003876 0.010160
vt 0.790548 0.025662
vt 0.171581 0.126386
vt 0.955113 0.085871
vt 0.028151 0.109230
vt 0.387411 0.180312
vt 0.003022 0.051625
vt 0.000000 0.000000
vt 0.644567 0.012240
vt 0.365083 0.195461
vt 0.294281 0.029718
vt 0.447546 0.030232
vt 0.227706 0.244685
vt 0.700476 0.085265
vt 0.130915 0.506521
vt 0.191242 0.176749
vt 0.323616 0.527899
vt 0.251247 0.497392
vt 0.177618 0.476493
vt 0.000331 0.000245
vn -0.0146 0.0938 -0.9955
vn -0.0145 0.1453 0.9893
vn 0.0001 0.0711 0.9975
vn -0.0300 0.0229 -0.9993
vn -0.0246 0.0510 -0.9984
vn 0.8144 0.5802 0.0111
vn 0.0324 0.0306 -0.9990
vn -0.0141 0.0164 -0.9998
vn 0.0234 0.0683 0.9974
vn 0.0353 -0.0214 -0.9991
vn -0.1162 0.0303 -0.9928
vn -0.1423 0.0725 0.9872
vn 0.0401 -0.0616 0.9973
vn 0.0593 -0.0434 0.9973
vn 0.0594 0.0429 0.9973
vn 0.0427 0.0584 0.9974
vn -0.1609 -0.0240 0.9867
vn -0.0146 -0.1459 0.9892
vn -0.0001 -0.0719 0.9974
vn 0.0310 -0.0336 -0.9990
vn 0.0246 -0.0465 -0.9986
vn 0.0211 -0.0517 -0.9984
vn -0.0234 -0.0583 -0.9980
vn -0.0275 -0.0355 -0.9990
vn 0.0192 -0.0699 0.9974
vn -0.0145 -0.0937 -0.9955
vn 0.0730 0.0053 0.9973
vn 0.3949 -0.9187 0.0046
vn 0.1223 -0.9925 -0.0005
vn 0.3577 -0.9338 -0.0007
vn 0.9028 -0.1028 0.4176
vn 0.8339 -0.3781 0.4021
vn 0.9978 -0.0655 -0.0061
vn 0.9980 0.0629 0.0032
vn 0.6907 -0.7231 0.0056
vn 0.5908 -0.8068 -0.0036
vn 0.7649 -0.6441 0.0001
vn 0.8733 -0.4873 0.0026
vn 0.4940 -0.1365 -0.8587
vn 0.7448 -0.0732 -0.6632
vn 0.1519 0.9884 0.0010
vn 0.4483 0.8939 0.0045
vn 0.1624 0.8187 -0.5507
vn 0.8868 0.1907 0.4209
vn 0.7248 0.1675 -0.6683
vn 0.6043 0.7968 0.0037
vn 0.7155 0.6985 -0.0117
vn 0.5275 0.8042 -0.2739
vn -0.5000 0.5977 0.6267
vn -0.3361 0.7001 0.6300
vn -0.5491 0.8357 -0.0038
vn -0.7559 0.5173 0.4014
vn -0.7375 0.6665 -0.1093
vn -0.8769 0.2839 0.3880
vn -0.6961 0.3213 -0.6420
vn -0.9182 0.0403 0.3940
vn -0.9966 0.0819 -0.0030
vn -0.8666 -0.2969 0.4011
vn -0.9731 -0.2183 -0.0734
vn -0.6363 -0.4537 0.6239
vn -0.6537 -0.4105 -0.6357
vn -0.1135 -0.9204 0.3741
vn -0.1910 -0.9816 -0.0087
vn -0.0166 0.0859 -0.9962
vn -0.3346 0.9309 -0.1463
vn -0.0928 0.7811 -0.6175
vn 0.0231 0.0479 -0.9986
vn 0.6433 0.2377 -0.7277
vn 0.7221 0.2637 0.6396
vn -0.1636 0.9132 0.3733
vn -0.0857 0.1241 0.9886
vn 0.0705 -0.0182 0.9973
vn 0.0374 0.0014 -0.9993
vn -0.0298 0.0208 -0.9993
vn -0.1575 0.0319 0.9870
vn 0.0690 0.0226 0.9974
vn -0.0942 -0.1142 0.9890
vn -0.5000 -0.6018 0.6227
vn -0.2968 -0.7230 0.6238
vn -0.5785 -0.8131 -0.0649
vn 0.1193 -0.9929 -0.0013
usemtl æè´¨.046
s off
f 15/1/1 37/2/1 20/3/1
f 45/4/2 41/5/2 21/6/2
f 45/4/3 46/7/3 41/5/3
f 36/8/4 23/9/4 37/2/4
f 23/10/5 39/11/5 37/12/5
f 14/13/6 12/14/6 13/15/6
f 18/16/7 13/17/7 37/2/7
f 25/18/8 23/9/8 36/8/8
f 46/7/9 42/19/9 41/20/9
f 6/21/10 43/22/10 37/23/10
f 35/24/11 40/25/11 36/8/11
f 26/26/12 38/27/12 45/4/12
f 3/28/13 5/29/13 46/30/13
f 5/29/14 10/31/14 46/30/14
f 14/13/15 46/30/15 12/32/15
f 14/13/16 42/19/16 46/30/16
f 27/33/17 28/34/17 45/4/17
f 44/35/18 1/36/18 45/37/18
f 1/38/19 46/30/19 45/37/19
f 4/39/20 37/40/20 43/41/20
f 4/42/21 2/43/21 37/40/21
f 2/43/22 9/44/22 37/40/22
f 32/45/23 34/46/23 37/40/23
f 34/47/24 36/8/24 37/40/24
f 3/48/25 46/30/25 1/49/25
f 32/50/26 37/40/26 9/51/26
f 8/52/27 19/53/27 46/30/27
s 1
f 3/48/28 1/49/29 2/43/30
f 8/52/31 10/54/32 16/55/33
f 8/52/31 16/55/33 7/56/34
f 5/29/35 4/57/36 43/22/37
f 16/55/33 10/54/32 6/21/38
f 6/21/39 11/58/40 16/55/33
f 41/59/41 42/19/42 15/60/43
f 19/61/44 16/62/33 17/63/45
f 14/13/46 13/15/47 18/16/48
f 7/56/34 19/64/44 8/52/31
f 24/65/49 22/66/50 23/9/51
f 26/26/52 24/65/49 25/18/53
f 38/67/54 26/26/52 40/25/55
f 27/33/56 38/67/54 35/24/57
f 26/26/52 25/18/53 40/68/55
f 35/24/57 38/67/54 40/25/55
f 28/69/58 27/33/56 36/70/59
f 29/71/60 28/72/58 33/73/61
f 1/49/29 44/74/62 32/45/63
f 37/12/64 39/11/65 20/75/66
f 15/60/43 18/16/48 37/2/67
f 19/61/44 17/63/45 13/76/68 12/32/69
f 21/6/70 22/66/50 45/4/71
f 8/77/31 46/30/72 10/54/32
f 24/65/49 45/4/71 22/66/50
f 24/65/49 26/26/52 45/4/71
f 17/63/45 11/78/40 37/23/73
f 11/58/40 6/21/39 37/23/73
f 25/79/53 36/8/74 40/68/55
f 38/67/54 27/33/56 45/4/75
f 12/32/69 46/30/76 19/61/44
f 28/80/58 29/71/60 45/81/77
f 29/71/60 30/82/78 45/81/77
f 30/83/78 31/84/79 45/81/77
f 31/85/79 44/35/62 45/37/77
f 34/47/80 33/73/61 36/8/59
f 31/86/79 34/46/80 32/45/63
f 20/3/66 41/59/41 15/1/43
f 37/23/73 13/76/68 17/63/45
f 4/42/36 5/29/35 3/48/28
f 6/21/38 10/87/32 5/29/35
f 2/43/30 1/49/29 9/51/81
f 4/42/36 3/48/28 2/43/30
f 6/21/38 5/29/35 43/22/37
f 18/16/48 42/19/42 14/13/46
f 19/61/44 7/56/34 16/62/33
f 33/73/61 34/47/80 30/82/78 29/71/60
f 15/60/43 42/19/42 18/16/48
f 39/11/65 22/66/50 21/6/70
f 39/11/65 21/6/70 20/3/66
f 23/9/51 22/66/50 39/11/65
f 25/18/53 24/65/49 23/9/51
f 31/86/79 30/83/78 34/47/80
f 36/70/59 27/33/56 35/88/57
f 33/73/61 28/72/58 36/70/59
f 44/74/62 31/86/79 32/89/63
f 32/45/63 9/51/81 1/49/29
f 41/5/41 20/3/66 21/90/70
f 16/62/33 11/78/40 17/91/45
